<svg viewBox="0 0 64 64" width="100%" height="100%" xmlns="http://www.w3.org/2000/svg">
  <defs>
    <!-- Gradients for Claymorphism -->
    <linearGradient id="roofGrad" x1="0%" y1="0%" x2="100%" y2="100%">
      <stop offset="0%" stop-color="#ffb86c" />
      <stop offset="100%" stop-color="#e28743" />
    </linearGradient>
    <linearGradient id="bodyGrad" x1="0%" y1="0%" x2="100%" y2="100%">
      <stop offset="0%" stop-color="#f8fafc" />
      <stop offset="100%" stop-color="#e2e8f0" />
    </linearGradient>
    <linearGradient id="doorGrad" x1="0%" y1="0%" x2="100%" y2="100%">
      <stop offset="0%" stop-color="#60a5fa" />
      <stop offset="100%" stop-color="#2563eb" />
    </linearGradient>
    <linearGradient id="arrowGrad" x1="0%" y1="0%" x2="100%" y2="100%">
      <stop offset="0%" stop-color="#4ade80" />
      <stop offset="100%" stop-color="#16a34a" />
    </linearGradient>
    <!-- Soft Drop Shadow -->
    <filter id="clayShadow" x="-20%" y="-20%" width="140%" height="140%">
      <feDropShadow dx="0" dy="4" stdDeviation="3" flood-color="#0f172a" flood-opacity="0.1" />
    </filter>
  </defs>
  
  <g filter="url(#clayShadow)">
    <!-- House Body -->
    <rect x="18" y="24" width="28" height="24" rx="6" fill="url(#bodyGrad)" />
    <!-- Door -->
    <rect x="28" y="34" width="8" height="14" rx="2" fill="url(#doorGrad)" />
    <!-- Roof -->
    <path d="M 12 26 L 30 10 C 31 9, 33 9, 34 10 L 52 26 C 53.5 27.2, 52.5 29, 50.5 29 L 13.5 29 C 11.5 29, 10.5 27.2, 12 26 Z" fill="url(#roofGrad)" />
    <!-- Chimney -->
    <rect x="42" y="14" width="5" height="10" rx="1.5" fill="#e28743" />
    <!-- Curved Arrow wrapping around -->
    <path d="M 11 44 C 9 53, 33 56, 44 48" fill="none" stroke="url(#arrowGrad)" stroke-width="4.5" stroke-linecap="round" />
    <!-- Arrow Head -->
    <path d="M 44 48 L 47 42 L 39 45 Z" fill="url(#arrowGrad)" stroke="url(#arrowGrad)" stroke-width="1.5" stroke-linejoin="round" />
  </g>
</svg>
